<svg xmlns="http://www.w3.org/2000/svg" viewBox="0 0 64 64" fill="none">
  <rect width="64" height="64" rx="14" fill="#122019"/>
  <circle cx="32" cy="32" r="26" stroke="#c8a04a" stroke-width="2.5" fill="none"/>
  <!-- Central Pillar & Beam -->
  <path d="M32 14 L32 21 M24 18 L32 21 L40 18" stroke="#c8a04a" stroke-width="2.5" stroke-linecap="round" stroke-linejoin="round"/>
  <!-- Left Pan Strings & Pan -->
  <path d="M21 21 L21 27 M18 27 L24 27" stroke="#c8a04a" stroke-width="2" stroke-linecap="round"/>
  <path d="M17 27 C17 31 25 31 25 27 Z" fill="#c8a04a" opacity="0.6" stroke="#c8a04a" stroke-width="1.5"/>
  <!-- Right Pan Strings & Pan -->
  <path d="M43 21 L43 27 M40 27 L46 27" stroke="#c8a04a" stroke-width="2" stroke-linecap="round"/>
  <path d="M39 27 C39 31 47 31 47 27 Z" fill="#c8a04a" opacity="0.6" stroke="#c8a04a" stroke-width="1.5"/>
  <!-- Vertical Staff -->
  <path d="M32 21 L32 42" stroke="#c8a04a" stroke-width="3" stroke-linecap="round"/>
  <!-- Pedestal Base -->
  <path d="M24 42 L40 42 L38 49 L26 49 Z" fill="#c8a04a" stroke="#c8a04a" stroke-width="1.5"/>
</svg>
